<?xml version="1.0" standalone="no"?>
<!DOCTYPE svg PUBLIC "-//W3C//DTD SVG 20010904//EN"
 "http://www.w3.org/TR/2001/REC-SVG-20010904/DTD/svg10.dtd">
<svg version="1.0" xmlns="http://www.w3.org/2000/svg"
 width="1280.000000pt" height="1128.000000pt" viewBox="0 0 1280.000000 1128.000000"
 preserveAspectRatio="xMidYMid meet">
<g transform="translate(0.000000,1128.000000) scale(0.100000,-0.100000)"
fill="#000000" stroke="none">
<path d="M7715 10199 c-53 -16 -85 -50 -100 -108 -8 -30 -21 -61 -29 -70 -25
-24 -122 -31 -160 -11 -17 9 -35 16 -41 14 -5 -1 -27 -5 -48 -9 -21 -3 -53
-20 -74 -38 -35 -31 -38 -32 -137 -32 -102 -1 -154 -16 -173 -49 -13 -22 -69
-46 -108 -46 -50 0 -101 -26 -133 -68 -17 -22 -56 -48 -109 -74 -81 -39 -121
-74 -155 -136 -9 -17 -38 -47 -65 -66 -54 -39 -77 -73 -98 -144 -8 -27 -31
-69 -50 -93 -34 -42 -66 -126 -81 -214 -3 -22 -18 -67 -31 -100 -23 -55 -25
-68 -19 -158 6 -89 5 -101 -14 -132 -18 -29 -21 -50 -22 -162 0 -70 -1 -167
-2 -215 -1 -76 2 -90 23 -119 33 -44 40 -163 10 -182 -22 -14 -25 -37 -6 -56
7 -7 12 -41 13 -84 8 -514 16 -749 31 -820 14 -68 14 -91 3 -175 -10 -78 -10
-167 -1 -447 7 -192 12 -354 12 -360 0 -5 0 -107 0 -225 -1 -280 4 -372 23
-445 9 -32 16 -72 16 -88 0 -15 5 -48 11 -71 9 -38 8 -49 -11 -86 -20 -40 -21
-44 -5 -88 28 -82 30 -299 5 -497 -31 -241 -51 -318 -97 -375 -21 -26 -119
-137 -218 -246 -99 -108 -215 -238 -259 -288 -124 -144 -245 -263 -318 -311
-113 -76 -181 -111 -223 -113 -22 -1 -52 -11 -67 -22 -15 -11 -32 -20 -39 -20
-6 0 -28 -8 -48 -18 -72 -37 -127 -62 -196 -88 -38 -14 -88 -37 -111 -50 -23
-13 -65 -28 -95 -34 -72 -13 -344 -37 -494 -45 -255 -12 -330 -15 -645 -20
-314 -6 -552 -23 -635 -46 -59 -16 -159 -75 -190 -110 -48 -58 -76 -128 -84
-207 -7 -78 -23 -102 -63 -102 -10 0 -22 -8 -25 -17 -4 -10 -22 -37 -40 -61
-41 -54 -62 -123 -70 -233 l-6 -86 35 -26 c19 -15 38 -27 42 -27 4 0 60 -29
125 -65 65 -36 208 -105 317 -154 109 -49 249 -111 309 -139 134 -61 353 -131
535 -172 74 -16 185 -41 245 -55 356 -80 730 -108 1275 -95 l305 7 88 31 c49
17 164 71 257 120 179 96 356 174 485 215 120 39 469 133 560 150 198 39 461
51 485 22 9 -11 10 -75 1 -297 -10 -254 -10 -284 5 -295 14 -10 57 -17 229
-38 163 -20 290 -36 359 -45 158 -20 486 -31 641 -21 253 17 340 56 436 199
83 122 227 340 346 524 59 92 137 211 172 265 78 120 122 211 128 267 6 54
-25 119 -70 146 l-32 20 0 387 c0 271 -4 411 -13 463 -7 41 -20 116 -28 165
-8 50 -27 144 -40 210 -46 216 -65 487 -53 740 6 105 10 206 10 225 -1 19 6
69 14 110 7 41 17 118 20 170 5 80 11 101 32 133 15 21 30 59 35 85 24 136 28
178 28 297 0 142 13 309 36 480 33 248 64 527 59 536 -3 4 1 74 9 156 9 81 20
198 26 258 6 61 15 148 20 195 9 90 50 328 76 445 26 117 36 233 22 255 -10
16 -9 23 9 42 11 13 35 50 53 83 29 55 31 66 27 133 -3 62 0 80 20 123 28 58
31 105 19 314 -6 103 -13 143 -33 194 -14 35 -32 103 -40 150 -11 65 -21 91
-38 106 -26 23 -60 86 -69 131 -4 18 -21 45 -39 62 -51 47 -113 124 -135 167
-26 52 -56 79 -114 104 -27 11 -83 53 -129 96 -88 83 -110 95 -170 95 -30 0
-46 6 -64 26 -14 15 -25 31 -25 35 0 5 -18 21 -40 35 -38 25 -45 26 -120 20
-78 -6 -79 -6 -113 24 -51 44 -103 63 -183 64 -67 1 -73 4 -97 32 -33 39 -100
60 -140 45 -54 -21 -57 -18 -57 67 0 69 -3 81 -22 99 -28 25 -55 34 -109 35
-33 0 -47 -6 -74 -32 -33 -32 -33 -32 -124 -29 l-91 4 -39 43 c-33 36 -44 42
-77 41 -22 0 -52 -5 -69 -10z"/>
</g>
</svg>
